<svg width="350" height="48" viewBox="0 0 350 48" fill="none" xmlns="http://www.w3.org/2000/svg">
<path d="M44.4355 0.0170898V5.89499C44.4355 7.84858 43.9214 13.7265 43.9214 13.7265H44.3499C45.2752 12.3555 45.8579 11.5672 47.1774 11.0531C48.4627 10.4705 49.9707 10.1963 51.6501 10.1963C53.518 10.1963 55.2145 10.5048 56.7054 11.1902C58.2135 11.8414 59.413 12.9039 60.3042 14.3263C61.2638 15.7315 61.6922 17.5994 61.6922 19.8614V36.8953C61.6922 37.3409 61.2981 37.7179 60.8183 37.7179H52.387C51.9243 37.7179 51.5302 37.3409 51.5302 36.8953V22.7747C51.5302 19.2616 50.4334 17.5137 48.2742 17.5137C46.5434 17.5137 45.3781 18.1992 44.7097 19.5872C44.0757 20.9924 43.9043 22.8775 43.9043 25.4651V36.724C43.9043 37.1695 43.3902 37.7008 42.8932 37.7008H35.2845C34.8047 37.7008 34.2735 37.1695 34.2735 36.724V0.0170898H0V47.9999H75.4016V0.0170898H44.4355Z" fill="#CC0033"/>
<path d="M105.819 20.941C107.019 20.4612 108.184 19.81 109.281 18.9875C110.378 18.1306 111.303 17.0681 111.971 15.7657C112.674 14.4291 113 12.8011 113 10.8475C113 0.582602 105.648 0.0170898 96.5655 0.0170898H89.111V37.7179H94.2692V22.7918H100.661L110.155 37.7179H116.53L105.819 20.941ZM98.8789 17.6508H94.2692V4.9182H100.13C105.271 4.9182 107.773 7.02601 107.773 11.2245C107.773 16.3313 101.655 17.6508 98.8789 17.6508Z" fill="#0B2333"/>
<path d="M128.645 10.2991C121.637 10.2991 116.53 15.0631 116.53 24.197C116.53 27.1788 117.164 29.3894 118.192 31.4458C119.203 33.5022 120.625 35.0445 122.391 36.1413C124.156 37.2037 126.229 37.7178 128.525 37.7178C132.193 37.7178 135.123 36.5183 137.282 34.1191C139.442 31.72 140.521 28.464 140.521 24.0427C140.521 12.8353 133.152 10.2991 128.645 10.2991ZM133.666 30.8289C132.604 32.474 130.873 33.3137 128.525 33.3137C126.178 33.3137 124.413 32.4569 123.282 30.8289C122.219 29.1495 121.705 26.9731 121.705 23.9742C121.705 16.8624 124.618 14.6347 128.457 14.6347C133.872 14.6347 135.346 18.5932 135.346 23.9742C135.346 26.9731 134.78 29.1666 133.666 30.8289Z" fill="#0B2333"/>
<path d="M165.01 13.7436C163.022 11.4473 160.4 10.3163 157.161 10.3163C153.477 10.3163 150.786 12.1328 149.809 13.7265H149.107V0.0170898H143.966V37.7179H147.907L148.164 33.7936H148.935C149.706 34.7875 150.718 35.8671 152.003 36.6211C153.288 37.3409 155.002 37.7179 157.058 37.7179C160.297 37.7179 162.919 36.5526 164.941 34.2563C166.929 31.9257 167.94 28.4983 167.94 23.9228C167.94 19.3473 166.997 16.0399 165.01 13.7436ZM160.965 30.8289C159.903 32.4912 158.343 33.3138 156.201 33.3138C153.579 33.3138 151.746 32.4912 150.786 30.8632C149.826 29.2352 149.347 26.8532 149.347 23.7686V23.3573C149.381 20.2384 149.895 17.9592 150.872 16.4341C151.831 14.9089 153.665 14.2234 156.15 14.2234C160.485 14.2234 162.559 17.3423 162.559 23.6658C162.559 26.7847 162.011 29.1667 160.965 30.8289Z" fill="#0B2333"/>
<path d="M195.359 22.0549C195.359 14.0692 189.721 10.2991 183.86 10.2991C178.548 10.2991 174.658 13.0238 172.858 16.6568C171.83 18.7475 171.35 20.9924 171.35 24.0085C171.35 27.0245 171.71 29.3723 172.858 31.3601C174.041 33.3823 175.823 35.2673 177.862 36.2612C179.919 37.2894 182.198 37.735 184.854 37.735C186.773 37.735 188.47 37.5465 189.858 37.238C191.28 36.9638 192.754 36.5697 193.851 35.9528V31.3773C192.685 31.9942 191.246 32.5425 189.858 32.851C188.47 33.1595 186.67 33.348 184.905 33.348C182.352 33.348 180.553 32.7825 179.13 31.343C177.742 29.9035 176.937 27.6243 176.868 25.0195H195.359V22.0891V22.0549ZM176.868 21.5579C177.417 16.5197 180.518 14.2234 183.723 14.2234C188.847 14.2234 190.509 18.3705 190.578 21.5579H176.885H176.868Z" fill="#0B2333"/>
<path d="M212.358 10.4019C213.455 10.4019 214.843 10.2991 215.923 10.7789L215.392 15.183C214.5 14.9603 213.13 15.183 212.17 15.183C210.559 15.183 203.927 16.5026 203.927 23.5115V37.7178H198.786V10.2991H203.07L203.601 15.2002H204.201C205.915 12.5097 208.554 10.4019 212.358 10.4019Z" fill="#0B2333"/>
<path d="M233.145 33.1768C234.55 33.1768 235.716 33.1083 236.847 32.6798V36.707C236.847 36.707 234.842 37.718 231.072 37.718C224.08 37.718 223.514 30.949 223.514 29.1497V13.7266H219.71V11.2075L223.994 8.68842L225.896 3.44458H229.221V9.69949H236.83V13.7266H229.221V29.0983C229.169 30.5035 229.512 33.1939 233.128 33.1939L233.145 33.1768Z" fill="#0B2333"/>
<path d="M279.329 37.7179H274.188V20.5812H257.394V37.7179H251.91V0.0170898H257.394V15.4401H274.188V0.0170898H279.329V37.7179Z" fill="#0B2333"/>
<path d="M302.84 12.5097C301.178 11.0531 298.659 10.2991 295.352 10.2991C293.552 10.2991 291.839 10.539 290.176 10.9845C288.548 11.4301 287.109 11.9613 285.858 12.6125L287.52 16.6225C288.651 16.0399 289.885 15.3715 291.17 14.9945C292.404 14.5833 293.724 14.4119 295.06 14.4119C296.688 14.4119 300.39 14.6689 300.39 20.9753H295.489C291.273 21.1123 288.223 21.9692 286.166 23.3573C284.093 24.7111 283.065 26.7846 283.065 29.4922C283.065 32.1998 283.853 34.2391 285.447 35.5243C287.04 36.7753 289.028 37.4265 291.444 37.4265C293.724 37.4265 295.437 37.0838 296.722 36.4497C297.991 35.7643 299.242 34.7189 300.373 33.2966H300.236L301.486 37.735H305.325V19.2959C305.325 16.2112 304.503 13.9321 302.806 12.5097H302.84ZM300.304 25.9963C300.304 29.338 298.847 30.5204 297.477 31.6C296.106 32.6796 294.426 32.9538 292.421 32.9538C291.102 32.9538 290.039 32.6625 289.234 32.097C288.428 31.5315 288.017 30.5718 288.017 29.3037C288.017 27.8814 288.6 26.7675 289.748 25.9449C290.896 25.1223 292.044 24.4197 296.774 24.4197H300.304V25.9963Z" fill="#0B2333"/>
<path d="M315.247 37.7179H309.764V18.9875V0.0170898H315.247V18.9875V37.7179Z" fill="#0B2333"/>
<path d="M329.025 9.83644V11.2759H336.548V15.2002H329.025V37.7179H323.541V15.2002H318.743V12.4926L323.61 10.2991C323.61 6.76896 324.57 3.44444 326.318 1.97068C328.117 0.479782 329.694 0.0170898 332.847 0.0170898C334.166 0.0170898 337.679 0.514055 339.307 0.993883L337.679 5.39802C337.062 5.22666 336.325 4.83251 335.537 4.69542C334.766 4.52405 334.166 4.42123 333.344 4.42123C330.43 4.42123 329.008 6.22059 329.008 9.83644H329.025Z" fill="#0B2333"/>
<path d="M61.6922 19.8614V36.8953C61.6922 37.3409 61.2981 37.7179 60.8183 37.7179H52.387C51.9243 37.7179 51.5301 37.3409 51.5301 36.8953V22.7747C51.5301 19.2616 50.4334 17.5137 48.2742 17.5137C46.5434 17.5137 45.3781 18.1992 44.7097 19.5872C44.0757 20.9924 43.9043 22.8775 43.9043 25.4651V36.724C43.9043 37.1695 43.3902 37.7008 42.8932 37.7008H35.2845C34.8047 37.7008 34.2735 37.1695 34.2735 36.724V0.0170898H44.4355V5.89499C44.4355 7.84858 43.9214 13.7265 43.9214 13.7265H44.3499C45.2581 12.3555 45.8579 11.5672 47.1774 11.0531C48.4627 10.4705 49.9707 10.1963 51.6501 10.1963C53.518 10.1963 55.2145 10.5048 56.7054 11.1902C58.2135 11.8414 59.413 12.9039 60.3042 14.3263C61.2638 15.7315 61.6922 17.5994 61.6922 19.8614Z" fill="white"/>
<path d="M29.8865 10.3162C29.6123 10.2819 29.6808 10.3162 29.4066 10.3162C27.9157 10.3162 26.3906 10.7446 25.071 11.6357C23.7858 12.4926 23.0146 13.4694 22.2606 14.7203H21.7808L20.3584 10.8132C20.2556 10.4876 19.7415 10.3162 19.3988 10.3162H14.6348C14.1892 10.3162 13.6751 10.8474 13.6751 11.293V36.741C13.6751 37.1866 14.1892 37.7178 14.6348 37.7178H21.7808C22.2435 37.7178 22.7404 37.3408 22.7404 36.8953V23.6314C22.7404 22.1063 22.8433 20.9924 23.4602 20.3069C24.0942 19.5529 24.8483 19.0902 25.688 18.8846C26.5619 18.6618 27.4016 18.559 28.1556 18.559C28.9611 18.559 29.458 18.559 29.9036 18.6275C30.3492 18.6618 30.8633 18.559 30.8633 18.1306V11.2759C30.8633 10.8474 30.3149 10.3333 29.9036 10.2991L29.8865 10.3162Z" fill="white"/>
<path d="M346.162 6.87183C345.665 6.87183 345.202 6.78615 344.791 6.61478C344.38 6.44341 344.02 6.2035 343.711 5.89504C343.403 5.58657 343.163 5.2267 342.992 4.81542C342.82 4.40414 342.735 3.94145 342.735 3.44448C342.735 2.94752 342.82 2.48483 342.992 2.07354C343.163 1.66226 343.403 1.28525 343.711 0.976794C344.02 0.668332 344.38 0.428418 344.791 0.257051C345.202 0.0856838 345.665 0 346.162 0C346.659 0 347.07 0.0856838 347.499 0.257051C347.91 0.428418 348.27 0.668332 348.595 0.976794C348.904 1.28525 349.161 1.64513 349.332 2.07354C349.504 2.48483 349.606 2.94752 349.606 3.44448C349.606 3.94145 349.521 4.40414 349.349 4.81542C349.178 5.2267 348.938 5.58657 348.63 5.89504C348.321 6.2035 347.961 6.44341 347.55 6.61478C347.139 6.78615 346.676 6.87183 346.179 6.87183H346.162ZM346.162 6.37486C346.556 6.37486 346.933 6.30632 347.276 6.15209C347.619 6.01499 347.927 5.80935 348.201 5.53516C348.475 5.26098 348.681 4.95251 348.835 4.60978C348.99 4.24991 349.058 3.85576 349.058 3.42735C349.058 3.01606 348.99 2.63906 348.835 2.29632C348.698 1.93645 348.493 1.62799 348.236 1.37094C347.978 1.09675 347.67 0.89111 347.327 0.73688C346.985 0.582649 346.59 0.514102 346.162 0.514102C345.596 0.514102 345.099 0.634059 344.671 0.89111C344.226 1.14816 343.883 1.4909 343.643 1.93645C343.403 2.38201 343.266 2.87897 343.266 3.44448C343.266 3.85576 343.334 4.23277 343.471 4.59264C343.609 4.95252 343.814 5.26098 344.071 5.51803C344.328 5.79222 344.637 5.99786 344.997 6.15209C345.357 6.30632 345.734 6.37486 346.162 6.37486ZM344.877 5.48375V1.40521H346.076C346.59 1.40521 346.967 1.50803 347.19 1.71367C347.43 1.91931 347.55 2.21064 347.55 2.62192C347.55 2.91324 347.481 3.15316 347.327 3.32453C347.173 3.49589 347.002 3.61585 346.83 3.70153L347.91 5.51803H347.104L346.179 3.90717H345.596V5.51803H344.877V5.48375ZM345.596 3.29025H346.059C346.299 3.29025 346.488 3.22171 346.625 3.10175C346.762 2.98179 346.83 2.82756 346.83 2.62192C346.83 2.39914 346.762 2.24491 346.642 2.14209C346.522 2.03927 346.316 1.98786 346.042 1.98786H345.579V3.27312L345.596 3.29025Z" fill="#0B2333"/>
</svg>
